<?xml version="1.0" encoding="UTF-8" standalone="no"?>
<svg
   xmlns:dc="http://purl.org/dc/elements/1.1/"
   xmlns:cc="http://creativecommons.org/ns#"
   xmlns:rdf="http://www.w3.org/1999/02/22-rdf-syntax-ns#"
   xmlns:svg="http://www.w3.org/2000/svg"
   xmlns="http://www.w3.org/2000/svg"
   viewBox="0 0 990 300"
   height="300"
   width="990"
   xml:space="preserve"
   version="1.1"
   id="svg2"><metadata
     id="metadata8"><rdf:RDF><cc:Work
         rdf:about=""><dc:format>image/svg+xml</dc:format><dc:type
           rdf:resource="http://purl.org/dc/dcmitype/StillImage" /><dc:title></dc:title></cc:Work></rdf:RDF></metadata><defs
     id="defs6"><clipPath
       id="clipPath36"
       clipPathUnits="userSpaceOnUse"><path
         id="path38"
         d="M 0,612 792,612 792,0 0,0 0,612 Z" /></clipPath></defs><g
     transform="matrix(1.25,0,0,-1.25,0,300)"
     id="g10"><g
       id="g4240"><g
         id="g252"
         transform="matrix(1.9531676,0,0,1.9531676,113.35244,24.938632)"><path
           d="m 0,0 0,4.657 0.467,0 c 24.407,0 44.262,19.86 44.262,44.263 l 0,0.467 4.661,0 0,-0.467 C 49.39,21.943 27.445,0 0.467,0 L 0,0 Z"
           style="fill:#2e4193;fill-opacity:1;fill-rule:nonzero;stroke:none"
           id="path254" /></g><g
         id="g256"
         transform="matrix(1.9531676,0,0,1.9531676,18.709555,119.5813)"><path
           d="m 0,0 0,0.464 c 0,26.975 21.948,48.921 48.923,48.921 l 0.466,0 0,-4.662 -0.466,0 C 24.517,44.723 4.658,24.873 4.658,0.464 L 4.658,0 0,0 Z"
           style="fill:#2e4193;fill-opacity:1;fill-rule:nonzero;stroke:none"
           id="path258" /></g><g
         id="g260"
         transform="matrix(1.9531676,0,0,1.9531676,114.26418,38.587932)"><path
           d="m 0,0 c -23.123,0 -41.931,18.812 -41.931,41.932 l 0,0.466 4.658,0 0,-0.466 C -37.273,21.382 -20.551,4.656 0,4.656 l 0.466,0 L 0.466,0 0,0 Z"
           style="fill:#2e4193;fill-opacity:1;fill-rule:nonzero;stroke:none"
           id="path262" /></g><g
         id="g264"
         transform="matrix(1.9531676,0,0,1.9531676,187.07123,119.5813)"><path
           d="m 0,0 0,0.464 c 0,20.555 -16.724,37.273 -37.276,37.273 l -0.467,0 0,4.66 0.467,0 c 23.123,0 41.934,-18.809 41.934,-41.933 L 4.658,0 0,0 Z"
           style="fill:#2e4193;fill-opacity:1;fill-rule:nonzero;stroke:none"
           id="path266" /></g><g
         id="g268"
         transform="matrix(1.9531676,0,0,1.9531676,113.35244,52.237062)"><path
           d="m 0,0 0,4.659 0.467,0 c 16.702,0 30.285,13.584 30.285,30.284 l 0,0.467 4.657,0 0,-0.467 C 35.409,15.675 19.735,0 0.467,0 L 0,0 Z"
           style="fill:#2e4193;fill-opacity:1;fill-rule:nonzero;stroke:none"
           id="path270" /></g><g
         id="g272"
         transform="matrix(1.9531676,0,0,1.9531676,46.015815,119.5813)"><path
           d="M 0,0 0,0.464 C 0,19.73 15.676,35.407 34.942,35.407 l 0.466,0 0,-4.658 -0.466,0 C 18.242,30.749 4.658,17.164 4.658,0.464 L 4.658,0 0,0 Z"
           style="fill:#2e4193;fill-opacity:1;fill-rule:nonzero;stroke:none"
           id="path274" /></g><g
         id="g276"
         transform="matrix(1.9531676,0,0,1.9531676,159.75736,119.5813)"><path
           d="m 0,0 0,0.464 c 0,12.845 -10.447,23.294 -23.292,23.294 l -0.467,0 0,4.664 0.467,0 C -7.877,28.422 4.666,15.88 4.666,0.464 L 4.666,0 0,0 Z"
           style="fill:#2e4193;fill-opacity:1;fill-rule:nonzero;stroke:none"
           id="path278" /></g><g
         id="g280"
         transform="matrix(1.9531676,0,0,1.9531676,114.26418,65.884432)"><path
           d="m 0,0 c -15.414,0 -27.957,12.542 -27.957,27.956 l 0,0.467 4.664,0 0,-0.467 C -23.293,15.108 -12.848,4.661 0,4.661 l 0.466,0 L 0.466,0 0,0 Z"
           style="fill:#2e4193;fill-opacity:1;fill-rule:nonzero;stroke:none"
           id="path282" /></g><g
         id="g284"
         transform="matrix(1.9531676,0,0,1.9531676,73.314455,119.5813)"><path
           d="m 0,0 0,0.464 c 0,11.561 9.405,20.967 20.966,20.967 l 0.466,0 0,-4.66 -0.466,0 C 11.975,16.771 4.658,9.458 4.658,0.464 L 4.658,0 0,0 Z"
           style="fill:#2e4193;fill-opacity:1;fill-rule:nonzero;stroke:none"
           id="path286" /></g><g
         id="g288"
         transform="matrix(1.9531676,0,0,1.9531676,113.35244,79.539612)"><path
           d="m 0,0 0,4.657 0.467,0 c 8.993,0 16.307,7.316 16.307,16.308 l 0,0.467 4.658,0 0,-0.467 C 21.432,9.406 12.026,0 0.467,0 L 0,0 Z"
           style="fill:#2e4193;fill-opacity:1;fill-rule:nonzero;stroke:none"
           id="path290" /></g><g
         id="g292"
         transform="matrix(1.9531676,0,0,1.9531676,113.3581,98.544712)"><path
           d="m 0,0 c -5.94,0 -10.771,4.835 -10.771,10.772 0,1.678 0.383,3.266 1.069,4.684 0.575,-0.274 1.235,-0.59 1.932,-0.924 -0.552,-1.14 -0.861,-2.414 -0.861,-3.76 0,-4.759 3.868,-8.628 8.631,-8.628 4.757,0 8.628,3.869 8.628,8.628 0,4.759 -3.871,8.63 -8.628,8.63 -1.602,0 -3.105,-0.439 -4.388,-1.2 l -1.091,1.84 c 1.607,0.954 3.48,1.499 5.479,1.499 5.937,0 10.769,-4.83 10.769,-10.769 C 10.769,4.835 5.937,0 0,0"
           style="fill:#3676a9;fill-opacity:1;fill-rule:nonzero;stroke:none"
           id="path294" /></g><g
         id="g296"
         transform="matrix(1.9531676,0,0,1.9531676,108.10896,128.47544)"><path
           d="m 0,0 c 0.783,0.462 1.702,0.731 2.688,0.731 2.916,0 5.283,-2.366 5.283,-5.283 0,-2.919 -2.367,-5.285 -5.283,-5.285 -2.921,0 -5.29,2.366 -5.29,5.285 0,0.827 0.194,1.608 0.53,2.308 2.523,-1.222 4.76,-2.308 4.76,-2.308 L 0,0 Z"
           style="fill:#3676a9;fill-opacity:1;fill-rule:nonzero;stroke:none"
           id="path298" /></g><g
         id="g300"
         transform="matrix(1.9531676,0,0,1.9531676,115.55737,142.49489)"><path
           d="m 0,0 0.006,0 c 0.127,-0.005 0.24,0.103 0.245,0.231 L 0.293,1.433 C 0.3,1.554 0.205,1.654 0.084,1.66 l -0.004,0 C -0.043,1.664 -0.144,1.568 -0.149,1.447 L -0.196,0.214 C -0.201,0.1 -0.115,0.004 0,0"
           style="fill:#1a2d45;fill-opacity:1;fill-rule:nonzero;stroke:none"
           id="path302" /></g><g
         id="g304"
         transform="matrix(1.9531676,0,0,1.9531676,118.42794,142.63981)"><path
           d="m 0,0 c -0.022,-0.116 0.049,-0.224 0.161,-0.243 l 0.011,-0.003 c 0.121,-0.021 0.246,0.067 0.271,0.196 L 0.659,1.131 C 0.683,1.251 0.604,1.364 0.481,1.387 0.36,1.409 0.245,1.329 0.222,1.21 L 0,0 Z"
           style="fill:#1a2d45;fill-opacity:1;fill-rule:nonzero;stroke:none"
           id="path306" /></g><g
         id="g308"
         transform="matrix(1.9531676,0,0,1.9531676,121.60574,141.89976)"><path
           d="M 0,0 C -0.04,-0.115 0.015,-0.233 0.124,-0.269 L 0.136,-0.272 C 0.254,-0.313 0.39,-0.243 0.43,-0.118 L 0.815,1.02 C 0.856,1.136 0.793,1.259 0.677,1.299 L 0.674,1.301 C 0.56,1.338 0.436,1.276 0.393,1.161 L 0,0 Z"
           style="fill:#1a2d45;fill-opacity:1;fill-rule:nonzero;stroke:none"
           id="path310" /></g><g
         id="g312"
         transform="matrix(1.9531676,0,0,1.9531676,124.64038,140.70579)"><path
           d="M 0,0 C -0.055,-0.108 -0.019,-0.236 0.085,-0.289 L 0.1,-0.296 c 0.11,-0.055 0.246,-0.006 0.306,0.109 l 0.547,1.075 c 0.055,0.107 0.012,0.24 -0.095,0.297 l -0.006,0 C 0.746,1.243 0.612,1.196 0.559,1.09 L 0,0 Z"
           style="fill:#1a2d45;fill-opacity:1;fill-rule:nonzero;stroke:none"
           id="path314" /></g><g
         id="g316"
         transform="matrix(1.9531676,0,0,1.9531676,127.47482,139.08641)"><path
           d="m 0,0 c -0.072,-0.103 -0.055,-0.237 0.044,-0.305 l 0.014,-0.009 c 0.094,-0.069 0.236,-0.04 0.311,0.063 l 0.696,0.988 c 0.073,0.1 0.05,0.239 -0.051,0.309 L 1.011,1.048 C 0.91,1.118 0.772,1.095 0.703,0.994 L 0,0 Z"
           style="fill:#1a2d45;fill-opacity:1;fill-rule:nonzero;stroke:none"
           id="path318" /></g><g
         id="g320"
         transform="matrix(1.9531676,0,0,1.9531676,130.10124,136.5305)"><path
           d="m 0,0 0.015,-0.014 c 0.084,-0.081 0.224,-0.071 0.312,0.02 L 1.158,0.888 C 1.244,0.978 1.242,1.116 1.156,1.199 L 1.149,1.203 C 1.063,1.287 0.922,1.283 0.839,1.193 L 0.003,0.315 C -0.083,0.222 -0.086,0.082 0,0"
           style="fill:#1a2d45;fill-opacity:1;fill-rule:nonzero;stroke:none"
           id="path322" /></g><g
         id="g324"
         transform="matrix(1.9531676,0,0,1.9531676,132.20695,134.09275)"><path
           d="m 0,0 0.012,-0.016 c 0.071,-0.088 0.207,-0.101 0.305,-0.022 l 0.956,0.754 c 0.095,0.078 0.11,0.216 0.035,0.311 L 1.305,1.031 C 1.229,1.126 1.092,1.143 0.997,1.067 L 0.048,0.316 C -0.052,0.236 -0.075,0.094 0,0"
           style="fill:#1a2d45;fill-opacity:1;fill-rule:nonzero;stroke:none"
           id="path326" /></g><g
         id="g328"
         transform="matrix(1.9531676,0,0,1.9531676,134.00757,131.4339)"><path
           d="M 0,0 0.009,-0.011 C 0.066,-0.111 0.196,-0.143 0.3,-0.08 L 1.356,0.533 C 1.466,0.594 1.501,0.73 1.44,0.836 L 1.437,0.838 C 1.377,0.943 1.241,0.979 1.135,0.92 L 0.095,0.314 C -0.018,0.248 -0.061,0.107 0,0"
           style="fill:#1a2d45;fill-opacity:1;fill-rule:nonzero;stroke:none"
           id="path330" /></g><g
         id="g332"
         transform="matrix(1.9531676,0,0,1.9531676,135.4037,128.54419)"><path
           d="M 0,0 0.005,-0.013 C 0.048,-0.117 0.166,-0.167 0.279,-0.121 L 1.42,0.335 c 0.111,0.046 0.167,0.174 0.124,0.287 l 0,0.005 C 1.494,0.739 1.367,0.794 1.255,0.748 L 0.138,0.302 C 0.017,0.252 -0.044,0.115 0,0"
           style="fill:#1a2d45;fill-opacity:1;fill-rule:nonzero;stroke:none"
           id="path334" /></g><g
         id="g336"
         transform="matrix(1.9531676,0,0,1.9531676,136.36505,125.48084)"><path
           d="m 0,0 0.003,-0.008 c 0.025,-0.113 0.135,-0.176 0.25,-0.148 L 1.448,0.13 C 1.566,0.158 1.642,0.276 1.616,0.396 L 1.613,0.401 C 1.588,0.52 1.467,0.593 1.345,0.564 L 0.178,0.283 C 0.055,0.253 -0.029,0.124 0,0"
           style="fill:#1a2d45;fill-opacity:1;fill-rule:nonzero;stroke:none"
           id="path338" /></g><g
         id="g340"
         transform="matrix(1.9531676,0,0,1.9531676,140.10165,122.62746)"><path
           d="m 0,0 0,0.007 c -0.013,0.121 -0.119,0.21 -0.239,0.198 l -1.199,-0.11 c -0.126,-0.014 -0.224,-0.13 -0.216,-0.257 l 0.003,-0.004 c 0.008,-0.115 0.107,-0.197 0.221,-0.187 l 1.228,0.114 C -0.078,-0.227 0.011,-0.119 0,0"
           style="fill:#1a2d45;fill-opacity:1;fill-rule:nonzero;stroke:none"
           id="path342" /></g><g
         id="g344"
         transform="matrix(1.9531676,0,0,1.9531676,276.76811,186.28842)"><path
           d="m 0,0 3.487,0 0,-11.42 c 0,-1.576 -0.206,-2.949 -0.619,-4.121 -0.412,-1.173 -1.058,-2.143 -1.94,-2.911 -0.882,-0.769 -2.021,-1.342 -3.417,-1.716 -1.398,-0.375 -3.091,-0.562 -5.078,-0.562 -1.969,0 -3.653,0.187 -5.048,0.562 -1.398,0.374 -2.537,0.947 -3.419,1.716 -0.881,0.768 -1.528,1.738 -1.94,2.911 -0.413,1.172 -0.62,2.545 -0.62,4.121 l 0,11.42 3.686,0 0,-11.42 c 0,-1.031 0.127,-1.913 0.38,-2.643 0.253,-0.733 0.665,-1.333 1.237,-1.801 0.572,-0.469 1.336,-0.812 2.292,-1.028 0.957,-0.215 2.138,-0.323 3.545,-0.323 1.406,0 2.588,0.108 3.544,0.323 0.956,0.216 1.721,0.559 2.293,1.028 0.571,0.468 0.984,1.068 1.237,1.801 0.253,0.73 0.38,1.612 0.38,2.643 L 0,0 Z"
           style="fill:#2e4193;fill-opacity:1;fill-rule:nonzero;stroke:none"
           id="path346" /></g><g
         id="g348"
         transform="matrix(1.9531676,0,0,1.9531676,296.37989,175.57471)"><path
           d="m 0,0 0,-14.964 -3.403,0 0,18.565 c 0,0.655 0.164,1.176 0.492,1.561 0.328,0.384 0.773,0.576 1.336,0.576 0.263,0 0.515,-0.056 0.76,-0.169 0.243,-0.112 0.496,-0.299 0.758,-0.562 l 14.431,-14.318 0,14.965 3.403,0 0,-18.734 c 0,-0.675 -0.165,-1.199 -0.493,-1.574 -0.327,-0.375 -0.755,-0.564 -1.278,-0.564 -0.582,0 -1.126,0.254 -1.632,0.76 L 0,0 Z"
           style="fill:#2e4193;fill-opacity:1;fill-rule:nonzero;stroke:none"
           id="path350" /></g><path
         d="m 338.24311,186.2894 6.97671,0 0,-39.94033 -6.97671,0 0,39.94033 z"
         style="fill:#2e4193;fill-opacity:1;fill-rule:nonzero;stroke:none"
         id="path352" /><g
         id="g354"
         transform="matrix(1.9531676,0,0,1.9531676,375.65486,153.32305)"><path
           d="M 0,0 C 0.92,0 1.769,0.17 2.547,0.507 3.325,0.844 3.999,1.309 4.571,1.898 5.144,2.49 5.589,3.197 5.908,4.023 6.227,4.849 6.386,5.739 6.386,6.695 6.386,7.651 6.227,8.538 5.908,9.354 5.589,10.169 5.144,10.867 4.571,11.448 3.999,12.03 3.325,12.484 2.547,12.813 1.769,13.141 0.92,13.306 0,13.306 l -8.297,0 L -8.297,0 0,0 Z m -11.842,-3.571 0,20.449 11.842,0 c 1.445,0 2.775,-0.244 3.995,-0.732 1.219,-0.488 2.269,-1.171 3.151,-2.053 0.88,-0.882 1.57,-1.937 2.067,-3.164 C 9.71,9.7 9.958,8.346 9.958,6.863 9.958,5.383 9.71,4.004 9.213,2.729 8.716,1.454 8.026,0.353 7.146,-0.576 6.264,-1.505 5.214,-2.235 3.995,-2.771 2.775,-3.305 1.445,-3.571 0,-3.571 l -11.842,0 z"
           style="fill:#2e4193;fill-opacity:1;fill-rule:nonzero;stroke:none"
           id="path356" /></g><g
         id="g358"
         transform="matrix(1.9531676,0,0,1.9531676,437.13392,146.34771)"><path
           d="m 0,0 -3.065,5.147 -9.677,0 1.687,2.898 6.273,0 -4.557,7.65 L -18.621,0 l -4.078,0 11.757,19.577 c 0.207,0.356 0.451,0.638 0.731,0.844 0.282,0.206 0.62,0.309 1.013,0.309 0.394,0 0.726,-0.103 0.999,-0.309 0.271,-0.206 0.511,-0.488 0.718,-0.844 L 4.304,0 0,0 Z"
           style="fill:#2e4193;fill-opacity:1;fill-rule:nonzero;stroke:none"
           id="path360" /></g><g
         id="g362"
         transform="matrix(1.9531676,0,0,1.9531676,472.95464,153.32305)"><path
           d="M 0,0 C 0.919,0 1.767,0.17 2.545,0.507 3.323,0.844 3.999,1.309 4.57,1.898 5.142,2.49 5.588,3.197 5.907,4.023 6.226,4.849 6.386,5.739 6.386,6.695 6.386,7.651 6.226,8.538 5.907,9.354 5.588,10.169 5.142,10.867 4.57,11.448 3.999,12.03 3.323,12.484 2.545,12.813 1.767,13.141 0.919,13.306 0,13.306 l -8.298,0 L -8.298,0 0,0 Z m -11.842,-3.571 0,20.449 11.842,0 c 1.442,0 2.774,-0.244 3.994,-0.732 1.219,-0.488 2.269,-1.171 3.151,-2.053 0.881,-0.882 1.57,-1.937 2.067,-3.164 C 9.708,9.7 9.956,8.346 9.956,6.863 9.956,5.383 9.708,4.004 9.212,2.729 8.715,1.454 8.026,0.353 7.145,-0.576 6.263,-1.505 5.213,-2.235 3.994,-2.771 2.774,-3.305 1.442,-3.571 0,-3.571 l -11.842,0 z"
           style="fill:#2e4193;fill-opacity:1;fill-rule:nonzero;stroke:none"
           id="path364" /></g><g
         id="g366"
         transform="matrix(1.9531676,0,0,1.9531676,290.77781,80.420682)"><path
           d="M 0,0 -3.91,14.373 -9.705,1.068 c -0.206,-0.43 -0.454,-0.764 -0.745,-0.998 -0.291,-0.234 -0.652,-0.352 -1.082,-0.352 -0.845,0 -1.454,0.451 -1.829,1.35 L -19.128,14.373 -23.037,0 l -3.517,0 5.261,19.239 c 0.243,0.975 0.834,1.463 1.772,1.463 0.375,0 0.726,-0.102 1.054,-0.309 0.328,-0.206 0.577,-0.506 0.745,-0.9 l 6.302,-14.459 6.3,14.459 c 0.338,0.805 0.909,1.209 1.716,1.209 0.862,0 1.434,-0.488 1.716,-1.463 L 3.544,0 0,0 Z"
           style="fill:#2e4193;fill-opacity:1;fill-rule:nonzero;stroke:none"
           id="path368" /></g><path
         d="m 314.34608,103.66064 22.14113,0 0,-5.879028 -22.14113,0 0,5.879028 z m -0.0566,19.1723 0,3.13288 14.06671,4.2286 0,-4.33993 -14.06671,-3.02155 z m -11.97485,-42.413038 0,39.940318 35.65312,0 0,-6.97671 -28.73109,0 0,-25.984938 28.78773,0 0,-6.97867 -35.70976,0 z"
         style="fill:#2e4193;fill-opacity:1;fill-rule:nonzero;stroke:none"
         id="path370" /><g
         id="g372"
         transform="matrix(1.9531676,0,0,1.9531676,367.14022,87.397982)"><path
           d="M 0,0 C 0.919,0 1.768,0.169 2.546,0.507 3.324,0.844 3.999,1.308 4.571,1.898 5.144,2.489 5.588,3.196 5.907,4.022 6.227,4.847 6.386,5.738 6.386,6.694 6.386,7.65 6.227,8.537 5.907,9.353 5.588,10.168 5.144,10.866 4.571,11.448 3.999,12.029 3.324,12.484 2.546,12.812 1.768,13.14 0.919,13.305 0,13.305 l -8.298,0 L -8.298,0 0,0 Z m -11.842,-3.572 0,20.448 11.842,0 c 1.444,0 2.775,-0.242 3.994,-0.73 1.219,-0.489 2.269,-1.172 3.152,-2.053 0.88,-0.882 1.57,-1.937 2.066,-3.165 C 9.709,9.699 9.958,8.344 9.958,6.863 9.958,5.381 9.709,4.003 9.212,2.729 8.716,1.453 8.026,0.352 7.146,-0.577 6.263,-1.505 5.213,-2.236 3.994,-2.771 2.775,-3.306 1.444,-3.572 0,-3.572 l -11.842,0 z"
           style="fill:#2e4193;fill-opacity:1;fill-rule:nonzero;stroke:none"
           id="path374" /></g><path
         d="m 392.68766,120.36022 6.97476,0 0,-39.938368 -6.97476,0 0,39.938368 z"
         style="fill:#2e4193;fill-opacity:1;fill-rule:nonzero;stroke:none"
         id="path376" /><g
         id="g378"
         transform="matrix(1.9531676,0,0,1.9531676,425.21083,80.420682)"><path
           d="m 0,0 c -1.425,0 -2.742,0.267 -3.952,0.802 -1.209,0.534 -2.26,1.265 -3.15,2.193 -0.891,0.929 -1.586,2.03 -2.082,3.306 -0.497,1.274 -0.745,2.652 -0.745,4.135 0,1.5 0.248,2.869 0.745,4.106 0.496,1.237 1.191,2.292 2.082,3.164 0.89,0.872 1.941,1.548 3.15,2.025 1.21,0.479 2.527,0.717 3.952,0.717 l 11.082,0 0,-3.571 -11.082,0 c -0.919,0 -1.768,-0.165 -2.545,-0.493 -0.779,-0.327 -1.449,-0.782 -2.012,-1.363 -0.562,-0.583 -1.004,-1.276 -1.322,-2.083 -0.318,-0.805 -0.478,-1.696 -0.478,-2.671 0,-0.956 0.16,-1.848 0.478,-2.672 0.318,-0.826 0.76,-1.533 1.322,-2.124 C -3.994,4.88 -3.324,4.416 -2.545,4.079 -1.768,3.741 -0.919,3.572 0,3.572 l 11.082,0 L 11.082,0 0,0 Z"
           style="fill:#2e4193;fill-opacity:1;fill-rule:nonzero;stroke:none"
           id="path380" /></g><g
         id="g382"
         transform="matrix(1.9531676,0,0,1.9531676,494.15901,80.420682)"><path
           d="m 0,0 -3.066,5.146 -9.676,0 1.687,2.898 6.274,0 -4.557,7.651 L -18.62,0 l -4.079,0 11.758,19.577 c 0.206,0.356 0.449,0.637 0.731,0.844 0.28,0.207 0.618,0.309 1.013,0.309 0.392,0 0.725,-0.102 0.998,-0.309 0.271,-0.207 0.512,-0.488 0.717,-0.844 L 4.305,0 0,0 Z"
           style="fill:#2e4193;fill-opacity:1;fill-rule:nonzero;stroke:none"
           id="path384" /></g><g
         id="g386"
         transform="matrix(1.9531676,0,0,1.9531676,520.30939,120.35964)"><path
           d="M 0,0 4.36,0 13.643,-15.751 22.896,0 27.004,0 15.218,-19.576 c -0.206,-0.358 -0.45,-0.638 -0.732,-0.844 -0.28,-0.207 -0.609,-0.31 -0.984,-0.31 -0.395,0 -0.731,0.103 -1.012,0.31 -0.282,0.206 -0.525,0.486 -0.731,0.844 L 0,0 Z"
           style="fill:#2e4193;fill-opacity:1;fill-rule:nonzero;stroke:none"
           id="path388" /></g><path
         d="m 577.72099,120.36022 6.97865,0 0,-39.938368 -6.97865,0 0,39.938368 z"
         style="fill:#2e4193;fill-opacity:1;fill-rule:nonzero;stroke:none"
         id="path390" /><g
         id="g392"
         transform="matrix(1.9531676,0,0,1.9531676,592.0082,80.420682)"><path
           d="m 0,0 0,3.572 15.328,0 c 0.957,0 1.693,0.243 2.209,0.731 0.515,0.488 0.774,1.134 0.774,1.942 0,0.881 -0.259,1.541 -0.774,1.983 -0.516,0.439 -1.252,0.661 -2.209,0.661 l -9.393,0 c -0.956,0 -1.826,0.144 -2.603,0.435 -0.778,0.29 -1.434,0.694 -1.969,1.21 -0.535,0.516 -0.947,1.13 -1.237,1.842 -0.292,0.713 -0.437,1.491 -0.437,2.335 0,0.825 0.135,1.589 0.409,2.293 0.271,0.702 0.674,1.308 1.209,1.813 0.535,0.507 1.196,0.905 1.983,1.197 0.788,0.29 1.689,0.434 2.7,0.434 l 14.684,0 0,-3.571 -14.684,0 c -0.826,0 -1.463,-0.221 -1.912,-0.661 -0.451,-0.441 -0.675,-1.055 -0.675,-1.843 0,-0.787 0.229,-1.396 0.688,-1.828 0.46,-0.431 1.083,-0.647 1.87,-0.647 l 9.367,0 c 2.082,0 3.662,-0.488 4.74,-1.462 1.078,-0.976 1.618,-2.457 1.618,-4.445 0,-0.863 -0.131,-1.66 -0.395,-2.39 C 21.029,2.869 20.636,2.236 20.11,1.702 19.585,1.167 18.924,0.75 18.127,0.45 17.33,0.149 16.398,0 15.328,0 L 0,0 Z"
           style="fill:#2e4193;fill-opacity:1;fill-rule:nonzero;stroke:none"
           id="path394" /></g><g
         id="g396"
         transform="matrix(1.9531676,0,0,1.9531676,676.06318,120.35964)"><path
           d="m 0,0 3.488,0 0,-11.42 c 0,-1.574 -0.207,-2.948 -0.619,-4.12 -0.413,-1.172 -1.06,-2.143 -1.94,-2.911 -0.882,-0.77 -2.021,-1.341 -3.419,-1.716 -1.397,-0.375 -3.089,-0.563 -5.076,-0.563 -1.97,0 -3.653,0.188 -5.049,0.563 -1.399,0.375 -2.536,0.946 -3.418,1.716 -0.881,0.768 -1.529,1.739 -1.942,2.911 -0.412,1.172 -0.618,2.546 -0.618,4.12 l 0,11.42 3.685,0 0,-11.42 c 0,-1.031 0.127,-1.912 0.381,-2.643 0.252,-0.732 0.664,-1.333 1.236,-1.8 0.572,-0.469 1.336,-0.812 2.293,-1.028 0.957,-0.214 2.138,-0.322 3.543,-0.322 1.407,0 2.588,0.108 3.545,0.322 0.957,0.216 1.72,0.559 2.293,1.028 0.572,0.467 0.984,1.068 1.236,1.8 C -0.126,-13.332 0,-12.451 0,-11.42 L 0,0 Z"
           style="fill:#2e4193;fill-opacity:1;fill-rule:nonzero;stroke:none"
           id="path398" /></g><g
         id="g400"
         transform="matrix(1.9531676,0,0,1.9531676,727.4311,80.420682)"><path
           d="m 0,0 -3.065,5.146 -9.677,0 1.688,2.898 6.272,0 -4.557,7.651 L -18.62,0 -22.7,0 -10.941,19.577 c 0.206,0.356 0.448,0.637 0.731,0.844 0.28,0.207 0.617,0.309 1.012,0.309 0.394,0 0.726,-0.102 0.999,-0.309 0.271,-0.207 0.511,-0.488 0.716,-0.844 L 4.304,0 0,0 Z"
           style="fill:#2e4193;fill-opacity:1;fill-rule:nonzero;stroke:none"
           id="path402" /></g><g
         id="g404"
         transform="matrix(1.9531676,0,0,1.9531676,740.12278,80.420682)"><path
           d="m 0,0 0,20.448 3.571,0 0,-16.876 13.756,0 L 17.327,0 0,0 Z"
           style="fill:#2e4193;fill-opacity:1;fill-rule:nonzero;stroke:none"
           id="path406" /></g><g
         id="g408"
         transform="matrix(1.9531676,0,0,1.9531676,246.46159,44.304272)"><path
           d="m 0,0 0,9.201 -4.232,0 0,1.947 10.414,0 0,-1.947 -4.234,0 L 1.948,0 0,0 Z"
           style="fill:#3871c1;fill-opacity:1;fill-rule:nonzero;stroke:none"
           id="path410" /></g><g
         id="g412"
         transform="matrix(1.9531676,0,0,1.9531676,280.51995,66.078962)"><path
           d="m 0,0 1.901,0 0,-6.226 c 0,-0.859 -0.112,-1.608 -0.338,-2.247 -0.223,-0.638 -0.577,-1.168 -1.057,-1.588 -0.481,-0.418 -1.102,-0.73 -1.863,-0.934 -0.762,-0.204 -1.685,-0.308 -2.768,-0.308 -1.074,0 -1.992,0.104 -2.754,0.308 -0.762,0.204 -1.383,0.516 -1.863,0.934 -0.48,0.42 -0.833,0.95 -1.058,1.588 -0.225,0.639 -0.337,1.388 -0.337,2.247 l 0,6.226 2.009,0 0,-6.226 c 0,-0.562 0.068,-1.044 0.207,-1.442 0.138,-0.398 0.362,-0.727 0.674,-0.981 0.311,-0.255 0.728,-0.443 1.25,-0.56 0.522,-0.117 1.166,-0.177 1.933,-0.177 0.766,0 1.411,0.06 1.932,0.177 0.522,0.117 0.938,0.305 1.25,0.56 0.312,0.254 0.536,0.583 0.675,0.981 C -0.068,-7.27 0,-6.788 0,-6.226 L 0,0 Z"
           style="fill:#3871c1;fill-opacity:1;fill-rule:nonzero;stroke:none"
           id="path414" /></g><g
         id="g416"
         transform="matrix(1.9531676,0,0,1.9531676,295.01617,66.078962)"><path
           d="M 0,0 2.377,0 7.438,-8.588 12.484,0 14.723,0 8.298,-10.674 c -0.113,-0.193 -0.246,-0.347 -0.4,-0.46 -0.153,-0.112 -0.332,-0.169 -0.537,-0.169 -0.214,0 -0.398,0.057 -0.551,0.169 -0.154,0.113 -0.287,0.267 -0.399,0.46 L 0,0 Z"
           style="fill:#3871c1;fill-opacity:1;fill-rule:nonzero;stroke:none"
           id="path418" /></g><path
         d="m 326.319,66.079742 3.80477,0 0,-21.77391 -3.80477,0 0,21.77391 z"
         style="fill:#3871c1;fill-opacity:1;fill-rule:nonzero;stroke:none"
         id="path420" /><g
         id="g422"
         transform="matrix(1.9531676,0,0,1.9531676,334.10608,44.304272)"><path
           d="m 0,0 0,1.947 8.358,0 c 0.522,0 0.922,0.133 1.205,0.399 0.281,0.266 0.421,0.618 0.421,1.058 0,0.481 -0.14,0.84 -0.421,1.081 C 9.28,4.726 8.88,4.846 8.358,4.846 l -5.122,0 C 2.715,4.846 2.241,4.925 1.817,5.083 1.393,5.242 1.035,5.462 0.744,5.743 0.452,6.023 0.228,6.359 0.069,6.748 -0.09,7.137 -0.168,7.561 -0.168,8.021 c 0,0.45 0.073,0.866 0.222,1.249 0.148,0.383 0.368,0.713 0.659,0.989 0.292,0.277 0.652,0.493 1.082,0.652 0.429,0.158 0.92,0.237 1.471,0.237 l 8.005,0 0,-1.947 -8.005,0 C 2.816,9.201 2.47,9.08 2.224,8.841 1.979,8.601 1.855,8.266 1.855,7.836 1.855,7.407 1.98,7.074 2.231,6.839 2.481,6.604 2.821,6.487 3.251,6.487 l 5.107,0 c 1.135,0 1.996,-0.266 2.584,-0.798 0.587,-0.531 0.882,-1.339 0.882,-2.422 0,-0.471 -0.071,-0.906 -0.215,-1.304 C 11.466,1.564 11.252,1.219 10.966,0.927 10.68,0.636 10.318,0.408 9.884,0.244 9.45,0.081 8.94,0 8.358,0 L 0,0 Z"
           style="fill:#3871c1;fill-opacity:1;fill-rule:nonzero;stroke:none"
           id="path424" /></g><path
         d="m 360.67524,66.079742 3.80282,0 0,-21.77391 -3.80282,0 0,21.77391 z"
         style="fill:#3871c1;fill-opacity:1;fill-rule:nonzero;stroke:none"
         id="path426" /><g
         id="g428"
         transform="matrix(1.9531676,0,0,1.9531676,378.13831,67.427622)"><path
           d="m 0,0 0,0.874 3.927,1.181 0,-1.211 L 0,0 Z m 2.853,-9.892 c 0.51,0 0.981,0.092 1.411,0.277 0.428,0.184 0.799,0.436 1.111,0.759 0.312,0.321 0.555,0.708 0.729,1.158 0.174,0.449 0.26,0.935 0.26,1.457 0,0.521 -0.086,1.004 -0.26,1.448 -0.174,0.445 -0.417,0.826 -0.729,1.144 -0.312,0.316 -0.683,0.564 -1.111,0.743 -0.43,0.178 -0.901,0.268 -1.411,0.268 l -2.715,0 c -0.5,0 -0.964,-0.09 -1.387,-0.268 -0.425,-0.179 -0.791,-0.427 -1.098,-0.743 -0.306,-0.318 -0.547,-0.696 -0.72,-1.135 -0.174,-0.44 -0.261,-0.926 -0.261,-1.457 0,-0.522 0.087,-1.008 0.261,-1.457 0.173,-0.45 0.414,-0.837 0.72,-1.158 0.307,-0.323 0.673,-0.575 1.098,-0.759 0.423,-0.185 0.887,-0.277 1.387,-0.277 l 2.715,0 z m -2.715,-1.947 c -0.778,0 -1.495,0.145 -2.155,0.437 -0.66,0.292 -1.232,0.69 -1.717,1.196 -0.487,0.506 -0.865,1.107 -1.135,1.802 -0.272,0.696 -0.407,1.447 -0.407,2.255 0,0.818 0.135,1.563 0.407,2.239 0.27,0.675 0.648,1.25 1.135,1.724 0.485,0.476 1.057,0.844 1.717,1.105 0.66,0.26 1.377,0.391 2.155,0.391 l 2.715,0 c 0.807,0 1.545,-0.133 2.215,-0.399 0.669,-0.265 1.244,-0.639 1.726,-1.119 0.48,-0.48 0.853,-1.056 1.119,-1.727 0.266,-0.669 0.4,-1.408 0.4,-2.214 0,-0.808 -0.136,-1.559 -0.408,-2.255 C 7.635,-9.099 7.256,-9.7 6.771,-10.206 6.285,-10.712 5.709,-11.11 5.046,-11.402 4.381,-11.694 3.649,-11.839 2.853,-11.839 l -2.715,0 z"
           style="fill:#3871c1;fill-opacity:1;fill-rule:nonzero;stroke:none"
           id="path430" /></g><g
         id="g432"
         transform="matrix(1.9531676,0,0,1.9531676,400.99252,60.238602)"><path
           d="m 0,0 0,-8.158 -1.856,0 0,10.121 c 0,0.358 0.089,0.641 0.269,0.851 0.179,0.209 0.422,0.315 0.729,0.315 0.142,0 0.28,-0.031 0.413,-0.092 0.133,-0.061 0.27,-0.164 0.414,-0.308 l 7.867,-7.805 0,8.159 1.856,0 0,-10.214 c 0,-0.368 -0.089,-0.654 -0.267,-0.859 -0.18,-0.204 -0.413,-0.307 -0.699,-0.307 -0.317,0 -0.614,0.139 -0.89,0.414 L 0,0 Z"
           style="fill:#3871c1;fill-opacity:1;fill-rule:nonzero;stroke:none"
           id="path434" /></g><g
         id="g436"
         transform="matrix(1.9531676,0,0,1.9531676,423.75726,40.768062)"><path
           d="m 0,0 0,3.988 1.963,0 L 1.195,0 0,0 Z"
           style="fill:#3871c1;fill-opacity:1;fill-rule:nonzero;stroke:none"
           id="path438" /></g><g
         id="g440"
         transform="matrix(1.9531676,0,0,1.9531676,447.15154,44.304272)"><path
           d="m 0,0 0,9.201 -4.233,0 0,1.947 10.414,0 0,-1.947 -4.234,0 L 1.947,0 0,0 Z"
           style="fill:#3871c1;fill-opacity:1;fill-rule:nonzero;stroke:none"
           id="path442" /></g><g
         id="g444"
         transform="matrix(1.9531676,0,0,1.9531676,481.20795,66.078962)"><path
           d="m 0,0 1.901,0 0,-6.226 c 0,-0.859 -0.112,-1.608 -0.337,-2.247 -0.224,-0.638 -0.578,-1.168 -1.058,-1.588 -0.481,-0.418 -1.102,-0.73 -1.863,-0.934 -0.762,-0.204 -1.685,-0.308 -2.768,-0.308 -1.074,0 -1.992,0.104 -2.753,0.308 -0.763,0.204 -1.383,0.516 -1.864,0.934 -0.481,0.42 -0.833,0.95 -1.058,1.588 -0.225,0.639 -0.337,1.388 -0.337,2.247 l 0,6.226 2.009,0 0,-6.226 c 0,-0.562 0.069,-1.044 0.207,-1.442 0.138,-0.398 0.362,-0.727 0.675,-0.981 0.311,-0.255 0.728,-0.443 1.25,-0.56 0.52,-0.117 1.165,-0.177 1.932,-0.177 0.767,0 1.411,0.06 1.931,0.177 0.522,0.117 0.939,0.305 1.251,0.56 0.312,0.254 0.536,0.583 0.675,0.981 C -0.068,-7.27 0,-6.788 0,-6.226 L 0,0 Z"
           style="fill:#3871c1;fill-opacity:1;fill-rule:nonzero;stroke:none"
           id="path446" /></g><path
         d="m 497.3833,66.079742 3.80477,0 0,-21.77391 -3.80477,0 0,21.77391 z"
         style="fill:#3871c1;fill-opacity:1;fill-rule:nonzero;stroke:none"
         id="path448" /><g
         id="g450"
         transform="matrix(1.9531676,0,0,1.9531676,532.27643,44.304272)"><path
           d="M 0,0 -2.131,7.836 -5.289,0.582 C -5.402,0.347 -5.538,0.165 -5.697,0.037 c -0.158,-0.127 -0.354,-0.191 -0.59,-0.191 -0.459,0 -0.792,0.246 -0.996,0.736 L -10.428,7.836 -12.559,0 l -1.918,0 2.868,10.489 c 0.133,0.532 0.456,0.798 0.967,0.798 0.204,0 0.396,-0.057 0.576,-0.169 0.178,-0.112 0.314,-0.276 0.406,-0.491 l 3.435,-7.882 3.435,7.882 c 0.184,0.439 0.495,0.66 0.935,0.66 0.47,0 0.783,-0.266 0.937,-0.798 L 1.934,0 0,0 Z"
           style="fill:#3871c1;fill-opacity:1;fill-rule:nonzero;stroke:none"
           id="path452" /></g><g
         id="g454"
         transform="matrix(1.9531676,0,0,1.9531676,561.2763,44.304272)"><path
           d="m 0,0 -1.672,2.807 -5.277,0 0.921,1.579 3.419,0 -2.485,4.171 -5.059,-8.557 -2.224,0 6.41,10.674 c 0.112,0.193 0.244,0.347 0.4,0.46 0.153,0.112 0.337,0.169 0.55,0.169 0.215,0 0.397,-0.057 0.546,-0.169 0.148,-0.113 0.278,-0.267 0.391,-0.46 L 2.346,0 0,0 Z"
           style="fill:#3871c1;fill-opacity:1;fill-rule:nonzero;stroke:none"
           id="path456" /></g><g
         id="g458"
         transform="matrix(1.9531676,0,0,1.9531676,575.23459,44.304272)"><path
           d="m 0,0 c -0.778,0 -1.496,0.145 -2.155,0.437 -0.659,0.292 -1.233,0.69 -1.718,1.196 -0.486,0.506 -0.863,1.107 -1.135,1.802 -0.271,0.696 -0.406,1.447 -0.406,2.254 0,0.819 0.135,1.564 0.406,2.24 0.272,0.675 0.649,1.25 1.135,1.724 0.485,0.476 1.059,0.844 1.718,1.105 0.659,0.26 1.377,0.39 2.155,0.39 l 6.041,0 0,-1.947 -6.041,0 c -0.501,0 -0.965,-0.09 -1.389,-0.268 C -1.812,8.754 -2.178,8.506 -2.484,8.189 -2.792,7.872 -3.033,7.494 -3.206,7.055 -3.379,6.615 -3.467,6.129 -3.467,5.598 -3.467,5.076 -3.379,4.59 -3.206,4.141 -3.033,3.69 -2.792,3.304 -2.484,2.982 -2.178,2.66 -1.812,2.408 -1.389,2.224 -0.965,2.039 -0.501,1.947 0,1.947 l 4.769,0 0,2.899 -5.03,0 0,1.641 6.993,0 L 6.732,0 0,0 Z"
           style="fill:#3871c1;fill-opacity:1;fill-rule:nonzero;stroke:none"
           id="path460" /></g><path
         d="m 598.44799,56.976032 12.07057,0 0,-3.2071 -12.07057,0 0,3.2071 z m -6.56265,-12.67215 0,21.77586 19.44183,0 0,-3.80477 -15.66635,0 0,-14.16828 15.69565,0 0,-3.80281 -19.47113,0 z"
         style="fill:#3871c1;fill-opacity:1;fill-rule:nonzero;stroke:none"
         id="path462" /><g
         id="g464"
         transform="matrix(1.9531676,0,0,1.9531676,618.15859,60.238602)"><path
           d="m 0,0 0,-8.158 -1.856,0 0,10.121 c 0,0.358 0.088,0.641 0.267,0.851 0.179,0.209 0.422,0.315 0.729,0.315 0.143,0 0.282,-0.031 0.415,-0.092 0.132,-0.061 0.269,-0.164 0.414,-0.308 l 7.867,-7.805 0,8.159 1.855,0 0,-10.214 c 0,-0.368 -0.089,-0.654 -0.268,-0.859 -0.179,-0.204 -0.411,-0.307 -0.697,-0.307 -0.318,0 -0.615,0.139 -0.89,0.414 L 0,0 Z"
           style="fill:#3871c1;fill-opacity:1;fill-rule:nonzero;stroke:none"
           id="path466" /></g></g></g></svg>